<svg width="24" height="24" fill="none" xmlns="http://www.w3.org/2000/svg"><path fill-rule="evenodd" clip-rule="evenodd" d="M12 3.75A1.25 1.25 0 0010.75 5a.75.75 0 01-.43.678 6.25 6.25 0 00-3.57 5.34V14a.75.75 0 01-.005.09 4.75 4.75 0 01-.83 2.16h12.17a4.75 4.75 0 01-.829-2.16.754.754 0 01-.006-.09v-2.982a6.25 6.25 0 00-3.57-5.34.75.75 0 01-.43-.678A1.25 1.25 0 0012 3.75zm-1.944-.695a2.75 2.75 0 014.652 1.463A7.75 7.75 0 0118.75 11v2.952a3.25 3.25 0 001.62 2.395.75.75 0 01-.37 1.403H4a.75.75 0 01-.37-1.403 3.25 3.25 0 001.62-2.395V11v-.035a7.75 7.75 0 014.043-6.447 2.75 2.75 0 01.763-1.463z" fill="#6A6A6A"/><path fill-rule="evenodd" clip-rule="evenodd" d="M9 16.25a.75.75 0 01.75.75v1a2.25 2.25 0 004.5 0v-1a.75.75 0 011.5 0v1a3.75 3.75 0 01-7.5 0v-1a.75.75 0 01.75-.75z" fill="#6A6A6A"/></svg>